# xmcd CD database file
#
# Track frame offsets:
#	150
#	20164
#	34390
#	53223
#	78043
#	94770
#	109448
#	127347
#	140213
#	158433
#
# Disc length: 2364 seconds
#
# Revision: 0
# Processed by: cddbd v1.5.2PL0 Copyright (c) Steve Scherf et al.
# Submitted via: CDex 1.51
#
DISCID=8c093a0a
DTITLE=Angela Desveaux - Wandering Eyes
DYEAR=2006
DGENRE=Country
TTITLE0=Heartbeat
TTITLE1=Familiar Times
TTITLE2=Wandering Eyes
TTITLE3=If Only
TTITLE4=Bury Me Deeper
TTITLE5=Sick of Fools
TTITLE6=Make Up Your Mind
TTITLE7=All The Talk
TTITLE8=Feel Alright
TTITLE9=Good Intentions
EXTD=YEAR: 2006
EXTT0=
EXTT1=
EXTT2=
EXTT3=
EXTT4=
EXTT5=
EXTT6=
EXTT7=
EXTT8=
EXTT9=
PLAYORDER=
